<svg width="127" height="127" viewBox="0 0 127 127" fill="none" xmlns="http://www.w3.org/2000/svg">
<path d="M110.903 81.0946C111.982 78.5229 108.897 76.3321 106.31 77.4751C101.137 79.7455 95.5487 80.9133 89.9001 80.9041C67.7545 80.9041 49.8052 63.3146 49.8052 41.6135C49.7971 34.2864 51.8787 27.1089 55.8059 20.9231C57.3087 18.5524 55.5043 15.2716 52.7526 15.9701C31.5383 21.3834 15.875 40.2853 15.875 62.7696C15.875 89.4766 37.9677 111.125 65.2251 111.125C85.8626 111.125 103.537 98.7159 110.903 81.0946Z" fill="#00A3FF"/>
<path d="M82.6084 16.4199C79.8039 14.5467 76.4595 17.891 78.3275 20.6956L81.6612 25.6962C83.0136 27.7238 83.7353 30.1064 83.7353 32.5436C83.7353 34.9808 83.0136 37.3635 81.6612 39.391L78.3275 44.3917C76.4595 47.1963 79.8091 50.5406 82.6137 48.6673L87.6091 45.3336C89.6366 43.9812 92.0193 43.2595 94.4565 43.2595C96.8937 43.2595 99.2763 43.9812 101.304 45.3336L106.305 48.6673C109.109 50.5406 112.453 47.1963 110.58 44.3917L107.246 39.391C105.894 37.3635 105.172 34.9808 105.172 32.5436C105.172 30.1064 105.894 27.7238 107.246 25.6962L110.58 20.6956C112.453 17.891 109.109 14.5467 106.299 16.4199L101.304 19.7537C99.2763 21.1061 96.8937 21.8278 94.4565 21.8278C92.0193 21.8278 89.6366 21.1061 87.6091 19.7537L82.6084 16.4199Z" fill="#00A3FF"/>
</svg>
